<svg width="800px" height="800px" viewBox="0 0 86 82" xmlns="http://www.w3.org/2000/svg">
<path d="M77.7639 12.6925C77.6102 12.6474 77.4433 12.6271 77.3051 12.553C76.6046 12.1769 75.9266 11.7557 75.2129 11.4091C74.5014 11.0642 73.7595 10.7807 73.025 10.485C71.4329 9.84384 69.7948 9.34621 68.1222 8.97298C66.541 8.62059 64.9437 8.35905 63.3229 8.27861C62.4422 8.23464 61.561 8.1814 60.6803 8.18025C58.6531 8.17851 56.6437 8.38566 54.6528 8.77162C52.7591 9.13905 50.9097 9.65925 49.1144 10.3692C48.9826 10.4213 48.8439 10.5191 48.7656 10.6348C47.2374 12.9014 46.1708 15.3612 45.7593 18.0808C45.2361 21.5393 45.9009 24.8052 47.3848 27.9322C48.0507 29.3354 48.8295 30.6714 49.7125 31.9462C49.7723 32.0324 49.8742 32.1204 49.9715 32.1447C52.4154 32.7441 54.613 33.865 56.6811 35.2815C59.3081 37.0805 61.6318 39.2029 63.5888 41.7241C64.0009 42.2552 64.3941 42.8021 64.7889 43.3471C65.1348 43.8245 65.1659 44.3731 65.0807 44.9257C64.9311 45.8961 64.5955 46.786 63.8668 47.4827C63.8121 47.5348 63.7477 47.5764 63.678 47.6302C63.56 47.4827 63.4553 47.3346 63.3344 47.202C62.9925 46.8282 62.6379 46.7588 62.201 47.0175C61.7648 47.2761 61.363 47.5955 60.9204 47.8426C59.6725 48.5393 58.329 48.8934 56.8987 48.839C55.8465 48.7991 54.9077 48.46 54.2009 47.6216C54.0898 47.4896 53.954 47.378 53.8429 47.246C53.124 46.3925 52.1863 46.2618 51.152 46.3804C50.4032 46.466 49.6468 46.5563 48.8963 46.5418C47.809 46.521 46.9289 45.9805 46.1536 45.2422C45.7086 44.8186 45.2626 44.391 44.7768 44.0184C44.0717 43.4773 43.2791 43.4351 42.4623 43.7528C42.239 43.8396 42.0116 43.92 41.7987 44.0282C40.674 44.5987 39.5941 44.4547 38.5408 43.8378C38.1022 43.5809 37.6671 43.3171 37.2267 43.063C36.5003 42.6441 35.7377 42.5463 34.9278 42.7893C34.0892 43.0416 33.2413 43.21 32.3521 43.1186C31.5048 43.0312 30.6535 42.9647 29.8022 42.945C27.566 42.8941 25.4024 43.3199 23.2761 43.9923C21.6069 44.5201 19.9412 45.068 18.2466 45.5003C16.5561 45.9314 14.8391 45.995 13.1411 45.4331C12.0251 45.064 10.9516 44.5976 9.95928 43.9721C8.95372 43.3385 7.96025 42.6771 7.01686 41.9555C5.63198 40.8954 4.79047 39.4963 4.73809 37.7048C4.70471 36.5597 4.72313 35.4128 4.71967 34.2665C4.71967 34.2202 4.73176 34.174 4.7427 34.0976C5.14734 34.2874 5.53586 34.4691 5.92439 34.6519C9.16957 36.1795 12.5517 37.2622 16.0974 37.8049C18.6789 38.2001 21.2719 38.2777 23.8679 37.9826C26.0896 37.7297 28.1664 37.0266 30.1539 35.981C32.9507 34.5101 35.8614 33.3014 38.9219 32.4855C40.6106 32.0353 42.323 31.7275 44.0694 31.6291C44.1068 31.6268 44.1436 31.6198 44.2064 31.6117C44.3197 31.0817 44.2478 30.5586 44.1286 30.0465C43.88 28.9789 43.5818 27.9223 43.3464 26.8512C42.9003 24.8237 42.7749 22.7736 42.9769 20.7038C43.1179 19.2583 43.4362 17.8557 43.9134 16.4866C43.9324 16.4328 43.9422 16.3755 43.9646 16.2882C43.5536 16.1539 43.1484 16.011 42.7374 15.8901C40.8305 15.3282 38.8896 14.9289 36.9136 14.7229C34.956 14.5193 32.995 14.4869 31.0271 14.6263C28.4818 14.8063 25.9895 15.257 23.5645 16.0382C22.2637 16.4571 21.0049 17.008 19.7248 17.4935C19.5791 17.5484 19.418 17.5618 19.266 17.6017C19.2038 17.6179 19.1353 17.6416 19.0893 17.6838C18.6478 18.0889 18.0935 18.2798 17.5576 18.5038C17.4932 18.531 17.4074 18.5072 17.3314 18.5067L17.3355 18.5165C17.3021 18.4534 17.4293 18.244 17.1968 18.3637C17.2848 18.2793 17.3602 18.174 17.4621 18.1132C20.1697 16.5098 23.0355 15.2784 26.0775 14.4822C27.7082 14.0552 29.3573 13.6964 31.0437 13.579C32.4862 13.4789 33.9321 13.355 35.3751 13.3649C38.3975 13.3851 41.3664 13.8451 44.2725 14.69C44.337 14.7085 44.4015 14.7264 44.4665 14.7426C44.5028 14.7519 44.5402 14.7565 44.588 14.7652C44.8504 14.2826 45.1072 13.8006 45.3731 13.3238C46.2514 11.7528 47.3335 10.3311 48.5975 9.06094C49.4684 8.18545 50.4106 7.38056 51.3322 6.55658C51.6194 6.29966 51.9446 6.08557 52.2462 5.84369C52.3792 5.73665 52.4477 5.79335 52.5098 5.91429C52.4494 5.92065 52.3527 5.90503 52.3348 5.93628C52.2226 6.12896 52.1282 6.33265 52.0269 6.53459C52.2261 6.35637 52.5248 6.25337 52.496 5.89404C52.5472 5.93512 52.5985 5.97678 52.6462 6.01497C51.9849 6.69545 51.3241 7.37478 50.6282 8.09056C50.7652 8.07898 50.8757 8.08535 50.9782 8.05873C53.9943 7.2793 57.0622 6.92691 60.1727 6.99287C61.9553 7.03049 63.7275 7.20813 65.4871 7.52291C67.7584 7.92969 69.9635 8.56099 72.1035 9.41969C72.7936 9.69628 73.474 10.0018 74.144 10.3258C74.8508 10.6678 75.545 11.0376 76.2334 11.4154C76.7077 11.6758 77.1681 11.9628 77.6228 12.2562C77.7316 12.3262 77.7932 12.4703 77.8767 12.5802L77.8853 12.5739C77.8439 12.6155 77.8024 12.6572 77.761 12.6989L77.7639 12.6908V12.6925ZM48.4847 57.3242C48.3886 58.0666 48.2597 58.8061 48.2044 59.5514C48.095 61.0142 48.2787 62.4533 48.62 63.8773C48.8997 65.0415 48.5509 65.8835 47.5356 66.4777C45.7455 67.5262 43.8904 68.4387 41.9184 69.0938C40.5249 69.5567 39.0922 69.7951 37.6273 69.8159C35.4649 69.8472 33.3858 69.3848 31.3511 68.6916C29.5029 68.062 27.6691 67.3897 25.8105 66.7937C23.3078 65.9911 20.7689 65.8759 18.219 66.5807C17.4028 66.8064 16.5987 67.0755 15.7422 67.3388C15.9938 67.7484 16.1705 68.1182 16.4203 68.4283C17.7965 70.1336 19.4295 71.5553 21.2633 72.7409C22.0513 73.2507 22.8916 73.6807 23.6681 74.2066C24.87 75.0202 26.0925 75.7933 27.4026 76.4176C30.105 77.7057 32.9236 78.4938 35.9449 78.3532C36.5147 78.3266 37.0805 78.2236 37.6481 78.1559C37.1657 77.8602 36.673 77.6646 36.2229 77.3961C35.7573 77.1184 35.3215 76.7839 34.8967 76.4437C34.7408 76.3187 34.6533 76.1069 34.503 75.8882C34.6492 75.8743 34.7051 75.8679 34.7615 75.8644C35.5357 75.817 36.3213 75.8367 37.0828 75.7111C39.2966 75.346 41.3572 74.522 43.3246 73.4544C46.0275 71.9881 48.4001 70.0751 50.6196 67.9596C51.1825 67.4227 51.6959 66.8191 52.3147 66.3585C56.1073 63.533 59.5211 60.3088 62.5516 56.6721C62.9378 56.2086 63.3079 55.7312 63.6855 55.2602C63.2475 55.4396 62.8371 55.6479 62.4595 55.906C61.2001 56.7676 59.9672 57.6691 58.6963 58.5133C57.2498 59.4744 55.7021 60.2238 53.9908 60.5953C51.8997 61.0495 50.3991 60.4379 49.2917 58.6464C49.0298 58.2223 48.8082 57.7732 48.5676 57.3358C48.54 57.3317 48.5129 57.3283 48.4847 57.3242ZM19.7299 68.161C19.7299 67.7172 20.0908 67.3636 20.5404 67.3665C20.9721 67.3688 21.3295 67.7253 21.3312 68.1546C21.3329 68.6089 20.9818 68.9618 20.5323 68.9572C20.069 68.9526 19.7294 68.6164 19.7299 68.161ZM10.9568 69.8842C11.0431 69.6689 11.1548 69.4595 11.2095 69.2367C11.324 68.7703 11.3885 68.2912 11.5093 67.8271C12.1482 65.3685 13.0295 63.0053 14.2693 60.7839C15.1787 59.1539 16.2925 57.6743 17.5162 56.274C19.7178 53.7557 22.2648 51.6836 25.2878 50.2376C27.8078 49.0323 30.4687 48.3802 33.2546 48.1979C35.6013 48.044 37.914 48.2008 40.1611 48.9142C41.9846 49.4935 43.7873 50.1398 45.5918 50.778C48.5831 51.8364 51.6401 52.3138 54.803 51.8537C56.8653 51.554 58.774 50.8429 60.4438 49.5687C61.0384 49.115 61.576 48.5867 62.1395 48.0926C62.1222 48.0735 62.1055 48.055 62.0882 48.0359C61.774 48.2152 61.4637 48.4022 61.1454 48.5734C60.0213 49.177 58.892 49.7747 57.6193 50.0061C55.991 50.3024 54.6084 49.8331 53.4849 48.6134C52.991 48.077 52.4062 47.7483 51.666 47.7784C50.7946 47.8131 49.9248 47.8715 49.054 47.919C47.4153 48.0093 46.0644 47.5249 45.1538 46.0477C44.9189 45.6669 44.5448 45.3649 44.2069 45.0582C43.842 44.7278 43.4287 44.7133 42.9821 44.9326C42.6051 45.1178 42.2073 45.2648 41.8119 45.4083C40.7384 45.7977 39.6931 45.7855 38.6899 45.1728C38.2317 44.8927 37.7649 44.6271 37.2993 44.3592C36.3662 43.8234 35.4027 43.7308 34.4063 44.1688C34.1168 44.2961 33.8244 44.4176 33.543 44.5617C32.683 45.0021 31.7937 45.2983 30.8095 45.1722C30.3058 45.1079 29.8022 45.0414 29.2985 44.9766C28.3695 44.8568 27.5286 45.0431 26.8108 45.6849C26.5029 45.9597 26.1892 46.2311 25.8571 46.4753C25.133 47.0076 24.2944 47.2871 23.4344 47.4919C22.1583 47.7963 21.2075 48.5219 20.5398 49.6451C20.2451 50.141 19.8583 50.5541 19.3725 50.8619C18.8867 51.1698 18.3888 51.4585 17.8938 51.7519C17.1369 52.1998 16.5849 52.8102 16.3616 53.6857C16.2689 54.0491 16.1676 54.4102 16.0755 54.7736C15.8683 55.5923 15.5425 56.3342 14.8478 56.8688C14.2693 57.3144 13.612 57.6702 13.1768 58.3114C13.1555 58.1204 13.1429 57.9364 13.1906 57.7698C13.3587 57.1836 13.2321 56.6628 12.957 56.1322C12.7802 55.7908 12.6352 55.3933 12.6202 55.0154C12.5961 54.4304 12.3946 53.9936 11.922 53.6718C11.4495 53.3507 11.1364 52.919 11.004 52.3566C10.8532 51.7172 10.4503 51.3359 9.8079 51.223C9.00437 51.0818 8.50936 50.6039 8.29179 49.8291C8.21466 49.5542 8.04141 49.4269 7.77606 49.4148C7.62468 49.4078 7.46927 49.4153 7.32019 49.4414C6.78317 49.534 6.30485 49.4194 5.91863 49.0271C5.66307 48.7673 5.42132 48.4913 5.19799 48.2031C4.93149 47.86 4.61492 47.6875 4.16653 47.6858C3.53338 47.6835 3.00384 47.4086 2.68208 46.8491C2.47775 46.4949 2.34133 46.0997 2.18938 45.7167C2.11282 45.524 2.07023 45.318 2.01209 45.1184C1.97986 45.1259 1.9482 45.1328 1.91597 45.1404C2.00864 45.6582 2.05814 46.1894 2.20319 46.6923C2.61531 48.1203 3.55871 49.1648 4.76054 49.9627C5.48406 50.443 6.26744 50.8394 7.04966 51.2207C9.02567 52.1853 10.5107 53.6435 11.3775 55.6664C12.6162 58.5561 12.3837 61.4314 11.1128 64.2586C11.0984 64.291 11.0546 64.3107 11.0247 64.3362C11.0362 63.8993 11.0212 63.4445 11.1945 63.0805C12.2697 60.8256 12.1436 58.5509 11.3085 56.2879C10.616 54.4113 9.26166 53.033 7.70411 51.8474C7.21083 51.4718 6.65596 51.219 6.02972 51.1339C5.88179 51.1137 5.7402 51.0049 5.60839 50.9175C5.41096 50.7867 5.24346 50.5923 5.03049 50.5055C3.95759 50.0698 3.01477 49.4952 2.46739 48.4068C2.20492 47.8848 1.89295 47.3878 1.60745 46.8873C1.56889 47.6771 1.82215 48.9449 2.15484 49.6283C2.4599 50.2555 2.93419 50.612 3.65195 50.5987C3.93745 50.5935 4.17171 50.715 4.35532 50.9337C4.47908 51.0813 4.60283 51.2282 4.7191 51.3816C5.14101 51.94 5.65443 52.2327 6.38543 52.069C6.79583 51.977 6.98232 52.1153 7.11643 52.5227C7.30811 53.1036 7.67821 53.4786 8.28488 53.5845C8.90307 53.6921 9.27375 54.052 9.4211 54.6573C9.52643 55.0889 9.76876 55.4257 10.1354 55.6687C10.5723 55.958 10.7622 56.3602 10.7852 56.885C10.7973 57.1639 10.8555 57.4868 11.0109 57.705C11.4909 58.3791 11.2946 59.0977 11.1979 59.7956C11.0374 60.9552 10.7478 62.0992 10.6333 63.2622C10.5326 64.2824 10.5671 65.3199 10.597 66.3481C10.631 67.5193 10.726 68.6887 10.7945 69.8587C10.8491 69.8686 10.9032 69.8778 10.9579 69.8877L10.9568 69.8842ZM49.9864 49.9622C49.9933 49.5149 50.4768 49.0253 50.9137 49.0236C51.4968 49.0213 51.9371 49.4587 51.9337 50.038C51.9302 50.5686 51.4807 50.9748 50.9016 50.9696C50.3732 50.965 49.9778 50.5298 49.9864 49.9622ZM28.3983 48.1655C27.8837 48.1666 27.463 47.7101 27.4705 47.1581C27.4762 46.7293 27.9615 46.2108 28.3615 46.2056C28.967 46.1975 29.4263 46.6332 29.4217 47.2113C29.4177 47.7413 28.9641 48.1637 28.3983 48.1655ZM34.6941 46.4371C34.7005 45.9852 35.1817 45.4956 35.618 45.4956C36.2028 45.4962 36.6368 45.9319 36.631 46.5129C36.6252 47.0568 36.193 47.448 35.6059 47.4404C35.0717 47.4335 34.6861 47.0088 34.6941 46.4371ZM21.9822 49.6028C21.9673 49.1602 22.472 48.6191 22.8997 48.6186C23.507 48.6174 23.9191 49.0167 23.9289 49.6156C23.9369 50.1525 23.5121 50.5518 22.9199 50.5634C22.4064 50.5732 22.0012 50.1577 21.9822 49.6028ZM43.0103 48.4056C42.5274 48.4079 42.1118 47.974 42.0916 47.4462C42.0738 46.9799 42.5705 46.4475 43.0218 46.4487C43.6031 46.4504 44.0337 46.8647 44.0446 47.4318C44.0544 47.9618 43.5859 48.4027 43.0103 48.4056ZM11.9387 63.1378C12.0751 63.0047 12.2294 62.8878 12.3837 62.7744C12.8136 62.4568 12.7751 62.0158 12.6951 61.5697C12.6168 61.1317 12.7492 60.7631 13.0254 60.4159C13.3334 61.763 13.1291 62.9966 11.6239 63.6262C11.602 63.61 11.5807 63.5932 11.5588 63.577C11.6849 63.43 11.8006 63.2726 11.9387 63.1378ZM10.9591 67.16C10.7519 66.5362 10.8607 65.5698 11.1444 65.4015C11.0811 66.0027 11.0201 66.5813 10.9591 67.16ZM54.1687 21.3443C54.2809 21.4433 54.3909 21.5445 54.5048 21.6417C56.3784 23.2336 58.0752 24.9956 59.5815 26.9433C61.7981 29.8098 63.5347 32.9443 64.763 36.3583C65.7484 39.0965 66.37 41.9173 66.6285 44.8215C66.8558 47.3774 66.8092 49.9251 66.4829 52.4671C66.2026 54.6492 65.7283 56.789 65.0399 58.879C63.6607 63.0632 61.5621 66.8423 58.6876 70.1718C56.7226 72.4476 54.4686 74.3982 51.9463 76.0334C49.3855 77.6935 46.6469 78.959 43.728 79.8322C39.711 81.034 35.6111 81.3945 31.4409 81.0583C29.2174 80.8789 27.0382 80.4664 24.8987 79.8403C20.0839 78.4313 15.8067 76.0508 12.0659 72.6883C9.21619 70.1261 6.85627 67.1715 5.00459 63.8142C2.66769 59.5769 1.31563 55.0322 0.926531 50.2029C0.712411 47.5406 0.811412 44.8857 1.22008 42.2466C1.79222 38.5543 2.93074 35.046 4.6506 31.7303C4.73521 31.5672 4.81004 31.3982 4.8889 31.2321C4.86357 31.2188 4.83882 31.2049 4.8135 31.1916C4.7168 31.3589 4.62297 31.5272 4.52397 31.6933C3.14543 34.0009 2.09325 36.4567 1.34038 39.0334C0.620316 41.4984 0.201286 44.0201 0.0562374 46.5916C-0.0957186 49.2817 0.0573886 51.9492 0.55067 54.5919C1.38182 59.0462 3.02686 63.1777 5.52953 66.9557C7.75764 70.3187 10.4854 73.2044 13.749 75.567C19.0461 79.4011 24.9546 81.538 31.4708 81.9384C35.1955 82.1676 38.8603 81.7544 42.4531 80.7424C47.6524 79.2784 52.2583 76.711 56.2903 73.113C59.1579 70.5537 61.5627 67.6049 63.4581 64.2459C65.6546 60.354 67.0579 56.1953 67.5615 51.7444C67.809 49.556 67.8355 47.3623 67.6387 45.1641C67.4591 43.1539 67.1223 41.1761 66.594 39.229C65.4664 35.0703 63.5876 31.2848 60.9883 27.8627C59.5107 25.9167 57.8214 24.1704 55.9444 22.6104C55.3872 22.1475 54.8059 21.7147 54.2354 21.2685L54.1687 21.3455V21.3443ZM59.6656 51.7502C59.0002 51.9799 58.344 52.2455 57.666 52.4301C56.8544 52.6517 56.0152 52.7715 55.2036 52.9937C53.8256 53.3704 52.4379 53.5688 51.0271 53.2691C50.299 53.1146 49.5904 52.8669 48.8767 52.6494C48.4392 52.5157 47.9598 52.4359 47.5885 52.194C47.0878 51.8676 46.5812 51.7045 45.9993 51.7068C45.5152 51.7085 45.0772 51.6009 44.6536 51.3168C42.894 50.1358 40.9508 49.4373 38.8424 49.2331C36.3363 48.99 33.8284 48.9154 31.3218 49.229C29.7095 49.4304 28.1347 49.8013 26.6255 50.4106C24.2334 51.3769 22.076 52.7385 20.081 54.3749C16.8963 56.9874 14.9347 60.3609 13.8929 64.3188C13.4145 66.1369 13.2534 67.9967 13.1486 69.8645C13.144 69.9484 13.1567 70.0335 13.1613 70.1174C13.2799 69.471 13.3858 68.8357 13.456 68.1957C13.5072 67.7328 13.7098 67.4238 14.134 67.2126C14.7292 66.9158 15.0066 66.3846 15.0084 65.7278C15.0095 65.2857 14.9825 64.8402 14.9203 64.4027C14.7856 63.4538 15.0481 62.6905 15.866 62.1535C16.0185 62.0534 16.1601 61.9371 16.3109 61.8353C16.9026 61.4337 17.2699 60.8782 17.442 60.1856C17.5116 59.9055 17.5928 59.6289 17.6567 59.3477C17.8489 58.5012 18.2668 57.8166 19.0352 57.378C19.2602 57.2496 19.4778 57.1084 19.7058 56.9857C20.4206 56.6026 21.0331 56.1125 21.4452 55.3921C21.5632 55.1856 21.7272 55.0033 21.8809 54.8193C22.4484 54.1417 23.2324 53.8663 24.0492 53.6574C24.9465 53.4276 25.7587 53.0405 26.4321 52.3855C27.0745 51.7606 27.8348 51.4632 28.7356 51.5766C28.9451 51.6032 29.1547 51.6258 29.363 51.6599C30.2345 51.804 31.0979 51.8607 31.9244 51.4493C32.2162 51.304 32.5178 51.179 32.8074 51.0298C33.8618 50.4864 34.8714 50.5755 35.8563 51.2161C36.1936 51.4354 36.5487 51.6275 36.8998 51.8248C37.5888 52.2119 38.3163 52.2895 39.0658 52.0511C39.521 51.9058 39.9712 51.738 40.408 51.5459C40.7787 51.3827 41.1304 51.3671 41.4268 51.6425C41.7681 51.9591 42.1152 52.2877 42.3771 52.669C42.8871 53.4103 43.5582 53.8726 44.4314 54.0225C44.7969 54.085 45.1762 54.1018 45.5481 54.089C46.1991 54.067 46.8489 54.0057 47.4993 53.9617C48.2199 53.9131 48.8399 54.1185 49.3314 54.674C49.4897 54.8528 49.6624 55.0253 49.8529 55.1676C51.0242 56.0437 52.3084 56.1282 53.6443 55.6496C55.2168 55.086 56.6593 54.2707 57.9756 53.2413C58.5685 52.7778 59.1239 52.2669 59.6961 51.7774C59.6857 51.7693 59.6748 51.7606 59.6644 51.7525L59.6656 51.7502ZM21.4043 61.0119C21.5333 60.597 21.695 60.1688 21.9442 59.8199C22.7057 58.7529 23.6888 57.9029 24.7428 57.139C27.3438 55.2538 30.1994 53.8738 33.2333 52.8525C33.7139 52.6905 34.2026 52.5516 34.6832 52.3896C34.754 52.3658 34.8012 52.2715 34.8593 52.2102C34.7799 52.1564 34.7051 52.0898 34.6182 52.054C34.5744 52.036 34.5071 52.0696 34.4524 52.0858C31.4115 52.9995 28.4921 54.1897 25.8128 55.9233C24.4964 56.7751 23.2255 57.6853 22.1733 58.8675C21.6311 59.4768 21.1718 60.1353 20.9945 60.9534C20.9041 61.3689 21.0388 61.7051 21.406 61.9094C21.5707 62.0008 21.7577 62.0662 21.9425 62.1026C22.2441 62.1628 22.552 62.1894 22.9089 62.2369C22.7921 62.3242 22.7265 62.3729 22.6608 62.422C22.6672 62.4371 22.6741 62.4515 22.6804 62.4666C23.4396 62.2369 24.1982 62.0072 24.9574 61.7769C24.9649 61.7977 24.9718 61.8185 24.9793 61.8399C24.1067 62.1784 23.2341 62.5169 22.3615 62.8549C22.3673 62.8716 22.3736 62.8884 22.3794 62.9052C23.4776 62.5829 24.5758 62.2612 25.6741 61.9389C25.6821 61.9597 25.6896 61.9805 25.6971 62.0014C25.2136 62.2548 24.7301 62.5088 24.2466 62.7623C24.3732 62.8219 24.486 62.8369 24.5983 62.8311C25.948 62.7634 27.2978 62.6876 28.6481 62.6234C30.5447 62.5337 32.4349 62.3914 34.2953 61.9811C34.8323 61.8625 35.2041 61.5043 35.2749 61.0142C35.485 59.5601 35.116 58.2483 34.3131 57.0407C34.1542 56.8017 33.9493 56.7352 33.6736 56.7606C32.7648 56.8439 31.9066 57.1009 31.0955 57.5123C30.6466 57.7403 30.2206 57.9277 29.6807 57.8433C29.2116 57.7703 28.7362 58.0863 28.7512 58.695C28.754 58.8188 28.6217 58.9942 28.5037 59.0648C27.7796 59.4987 27.0382 59.9021 26.3101 60.3291C25.5071 60.7995 24.7145 61.2902 23.7971 61.5124C23.317 61.6287 22.8358 61.7439 22.3143 61.6733C22.3517 61.2381 22.6246 60.9749 22.8836 60.7116C25.2285 58.3305 27.9568 56.5274 31.0449 55.2735C33.2442 54.3807 35.5287 53.8356 37.8938 53.6493C38.6289 53.5914 39.3674 53.5746 40.1035 53.5266C40.191 53.5208 40.2733 53.4381 40.3585 53.3912C40.2762 53.3241 40.2025 53.2402 40.1099 53.195C40.0477 53.1649 39.9591 53.1858 39.8825 53.191C38.9455 53.2523 38.0049 53.2795 37.0725 53.3831C33.7548 53.7523 30.6472 54.7828 27.7491 56.4482C25.8237 57.5545 24.0918 58.9166 22.5112 60.4755C22.1699 60.8123 21.8838 61.182 21.8907 61.7225C21.4343 61.5691 21.2858 61.3915 21.4043 61.0107V61.0119ZM29.2387 58.7014C29.2358 58.4485 29.4931 58.2286 29.7895 58.2298C30.1424 58.2315 30.4733 58.5284 30.4682 58.8385C30.4635 59.0983 30.2431 59.2858 29.9403 59.2881C29.5869 59.2904 29.2416 59.0023 29.2387 58.7014ZM81.5691 17.2279C81.401 17.8858 81.1788 18.5373 81.0914 19.2062C81.0148 19.7901 81.039 20.4006 81.1115 20.9873C81.2951 22.4669 81.934 23.7792 82.7203 25.0199C83.171 25.731 83.6683 26.4126 84.1644 27.1371C84.1972 27.0538 84.2099 27.0277 84.218 27.0005C84.7026 25.2924 84.9254 23.568 84.6606 21.7887C84.5478 21.029 84.3912 20.29 84.0447 19.613C83.7765 19.0894 83.4559 18.5831 83.095 18.1196C82.7255 17.6451 82.2569 17.2585 81.6848 16.9762C81.6376 17.0768 81.5892 17.1486 81.5691 17.2279ZM12.2778 23.5136C11.5479 23.9638 11.0132 24.6079 10.5648 25.3202C10.003 26.2124 9.71695 27.2117 9.58629 28.251C9.42513 29.5304 9.48269 30.8063 9.74573 32.07C9.8407 32.5254 9.95467 32.9767 10.06 33.4298C10.0882 33.4316 10.117 33.4327 10.1452 33.4344C10.2056 33.3199 10.2528 33.1966 10.3282 33.093C10.6765 32.6134 11.0564 32.1557 11.3816 31.6609C12.215 30.3931 12.8982 29.0553 13.1446 27.5317C13.3777 26.0886 13.1878 24.701 12.6001 23.3175C12.4729 23.395 12.3756 23.454 12.2789 23.5136H12.2778ZM45.4525 0C44.5224 1.46975 44.1678 3.06275 44.5022 4.77089C44.6403 5.47626 44.8643 6.17931 45.1544 6.83664C45.563 7.76305 46.069 8.64547 46.5668 9.61123C48.5342 6.22791 47.421 1.50389 45.4525 0ZM50.8049 16.118C50.8015 16.1134 50.798 16.1088 50.7951 16.1042C50.6501 16.1747 50.493 16.228 50.3617 16.3188C49.9864 16.5798 49.6163 16.8489 49.2543 17.1278C48.1739 17.961 47.4544 19.0465 47.0837 20.3589C46.9744 20.7472 46.8708 21.1499 46.9669 21.5706C48.0473 21.4491 48.9964 21.066 49.8546 20.4347C50.455 19.9932 50.9465 19.4568 51.369 18.844C52.0781 17.8169 52.553 16.6782 53.0394 15.4688C52.1766 15.3936 51.4882 15.7541 50.7969 16.1042C50.7997 16.1088 50.8026 16.1134 50.8049 16.118ZM61.9449 2.89841C60.4892 2.62645 59.0624 2.68026 57.7241 3.39604C57.301 3.62229 56.9114 3.91103 56.4682 4.19572C56.6086 4.31724 56.6748 4.38494 56.7508 4.43933C58.0677 5.38194 59.5447 5.7216 61.1316 5.54164C62.6258 5.37268 64.0107 4.81429 65.4301 4.20093C64.2847 3.60146 63.1594 3.12524 61.9449 2.89841ZM28.3672 12.6792C27.5522 11.4976 26.4908 10.6522 25.1422 10.1985C23.5628 9.66735 21.9719 9.71943 20.3527 10.1766C21.6881 12.1162 24.9983 14.0656 28.3672 12.6792ZM82.0693 13.1843C83.407 13.3099 84.7055 13.1166 86 12.4552C85.3985 12.0143 84.8903 11.5867 84.3302 11.243C82.9574 10.3999 81.4701 10.0099 79.8515 10.2298C79.1056 10.3311 78.4016 10.5533 77.6994 10.9265C78.8615 12.3169 80.3391 13.0223 82.0693 13.1843ZM14.126 15.6065C12.2001 15.2206 10.418 15.6592 8.6878 16.6244C9.82747 17.5565 11.0869 18.1155 12.5051 18.2798C14.1421 18.4691 15.6594 18.1184 17.0885 17.1295C16.2108 16.3252 15.2323 15.8287 14.126 15.6065ZM70.4245 6.41655C71.8428 5.92586 73.0043 5.05038 73.9143 3.83581C72.9301 3.36943 70.6789 3.32487 69.3487 3.75422C67.9299 4.21308 66.8029 5.07699 65.9015 6.33149C67.4234 6.91997 68.9303 6.93327 70.4245 6.41655ZM42.6494 56.9047C42.0911 56.4499 41.6035 56.3978 40.9664 56.7733C39.4854 57.6459 38.5339 58.9033 37.9975 60.5484C38.3209 60.6589 38.6254 60.7422 38.9132 60.8655C39.2545 61.0125 39.5337 60.9702 39.8434 60.7532C41.192 59.8072 42.6241 59.0769 44.3813 59.1533C44.0009 58.202 43.3936 57.5105 42.6494 56.9047ZM35.1391 56.3972C34.8029 56.5737 34.7983 56.594 35.0142 56.9041C35.4873 57.584 35.8062 58.331 35.9386 59.1492C36.0197 59.6492 36.0606 60.1555 36.1216 60.674C36.2626 60.6636 36.4036 60.6479 36.5447 60.6433C37.1226 60.6259 37.1709 60.5866 37.362 60.0363C37.754 58.9085 38.3428 57.9034 39.2655 57.1333C39.7484 56.7299 40.2762 56.3805 40.8086 55.9881C38.8706 55.3921 36.9735 55.4344 35.1391 56.3972ZM33.7225 65.4252C33.4969 65.6526 33.4825 65.8586 33.7295 66.0623C33.9729 66.2631 34.2555 66.4152 34.499 66.616C34.6544 66.7439 34.7949 66.9059 34.8996 67.0789C35.0579 67.3411 35.1598 67.6373 35.3198 67.8983C35.5783 68.319 36.0191 68.4995 36.4566 68.3427C37.1801 68.0835 37.7868 67.6535 38.1661 66.9626C38.6364 66.1051 38.017 64.8193 37.0725 64.6816C36.7507 64.6348 36.4249 64.6186 36.1009 64.5879C35.2104 64.5954 34.3827 64.7621 33.7237 65.4263L33.7225 65.4252ZM44.3526 59.7834C42.8439 59.8263 41.5183 60.3713 40.3182 61.2648C40.1657 61.3782 40.0604 61.5037 40.1427 61.7016C40.2267 61.903 40.2912 62.102 40.5922 62.0922C41.3716 62.0667 42.1406 62.1657 42.8871 62.3995C43.2037 62.4984 43.5116 62.628 43.8426 62.7513C44.3439 61.8202 44.5281 60.8418 44.4257 59.8095C44.3871 59.7956 44.3698 59.7829 44.3526 59.7834ZM19.0427 21.5735C18.3146 21.563 17.709 22.1093 17.6935 22.7898C17.6774 23.5027 18.2478 24.0691 18.992 24.079C19.7294 24.0888 20.3067 23.5559 20.3188 22.854C20.3308 22.1527 19.7639 21.5833 19.0427 21.5735ZM40.5916 19.4886C40.1438 19.0651 39.6195 18.7769 38.9886 18.7312C38.8453 18.7208 38.7342 18.741 38.7757 18.9326C38.9178 19.5876 39.1463 20.2027 39.6108 20.7015C40.2791 21.4184 41.1246 21.8582 42.0513 22.2667C41.801 21.173 41.3762 20.2304 40.5916 19.4886ZM43.4454 63.316C43.4155 63.2825 43.3994 63.2576 43.3769 63.2414C43.3384 63.2136 43.2975 63.1864 43.2543 63.1668C42.3489 62.7507 41.3923 62.6743 40.4155 62.7455C40.3482 62.7507 40.2601 62.7941 40.2238 62.8485C40.1087 63.0221 40.0132 63.2096 39.9257 63.3646C40.3332 63.5417 40.7332 63.6794 41.0959 63.8831C41.4608 64.0879 41.7889 64.3593 42.1688 64.6267C42.7069 64.3356 43.1173 63.8692 43.4454 63.316ZM40.0523 64.0833C39.6321 63.9496 39.2701 63.9543 38.9391 64.2847C38.8407 64.383 38.7003 64.4438 38.5707 64.5034C38.3791 64.5914 38.3307 64.6996 38.4608 64.8824C38.6559 65.1567 38.8545 65.4298 39.0237 65.7197C39.1342 65.9089 39.2615 65.9622 39.4681 65.9193C40.2187 65.7643 40.9157 65.4871 41.5667 65.0277C41.1442 64.5405 40.6319 64.2679 40.0523 64.0833ZM37.0558 61.3249C37.149 61.2503 37.2739 61.0582 37.2457 61.0159C37.13 60.8458 36.9637 60.9268 36.8175 61.0142C36.768 61.0437 36.7139 61.0663 36.669 61.101C36.368 61.3336 36.25 61.6507 36.3035 62.017C36.3524 62.3532 36.4514 62.6755 36.8814 62.819C36.4802 61.9661 36.513 61.7595 37.0558 61.3249ZM38.7118 61.6507C38.8315 61.6171 38.9426 61.5529 39.0761 61.4951C38.8741 61.189 38.6352 61.2584 38.409 61.3197C38.0216 61.4245 37.7373 61.653 37.6682 62.0679C37.6314 62.2895 37.625 62.5297 37.9169 62.6743C37.9376 61.9672 38.0452 61.8376 38.7118 61.6507ZM39.7639 62.5019C39.8906 62.5106 40.0201 62.4799 40.1945 62.4625C39.9038 62.1275 39.3743 62.1154 39.0191 62.3723C38.7417 62.5731 38.6703 62.8068 38.8453 63.0938C38.9811 62.58 39.3282 62.4712 39.7639 62.5019ZM17.0805 18.5593V18.5686C17.1001 18.5061 17.1202 18.4436 17.1409 18.3811C16.8854 18.5194 16.6252 18.6502 16.3754 18.7995C16.1751 18.9192 16.1567 19.0882 16.319 19.3347C16.6194 19.1027 16.9049 18.8828 17.1898 18.6629C17.1536 18.6282 17.1167 18.5935 17.0805 18.5593ZM15.7221 19.6443C15.6714 19.6443 15.6208 19.6443 15.5701 19.6437C15.5563 19.6385 15.5483 19.6362 15.546 19.6362C15.4216 19.4886 15.3071 19.4817 15.1661 19.631C15.017 19.7889 14.846 19.9272 14.6791 20.0667C14.6325 20.1055 14.564 20.1182 14.5059 20.1425C14.537 20.1818 14.5686 20.2206 14.5997 20.26C15.0671 20.2455 15.3451 19.8509 15.714 19.6396L15.7227 19.6454L15.7221 19.6443ZM78.6583 13.1687C78.5801 13.1467 78.5018 13.1247 78.4235 13.1033C78.4235 13.1033 78.4247 13.1045 78.4258 13.1051C78.4247 13.1375 78.4103 13.1901 78.4235 13.1988C78.6583 13.3498 78.8753 13.5523 79.1902 13.4956C79.1902 13.4956 79.1723 13.5089 79.1718 13.5089C79.1718 13.4453 79.1896 13.3325 79.1706 13.3261C78.9974 13.2653 78.8172 13.2231 78.6393 13.1757L78.6583 13.1687ZM78.6981 13.0183C78.6393 12.9691 78.5806 12.9199 78.5219 12.8707C78.5219 12.8707 78.5271 12.8771 78.5277 12.8777C78.4356 12.8221 78.3435 12.7666 78.2514 12.7104C78.2618 12.8019 78.2715 12.8933 78.2819 12.9847C78.3297 13.0252 78.3786 13.0651 78.4258 13.1051C78.4247 13.1045 78.4235 13.1033 78.4235 13.1033C78.515 13.075 78.606 13.0466 78.6981 13.0183ZM15.5989 19.5204C15.6398 19.5204 15.6806 19.5204 15.7215 19.5204L15.7135 19.5291C15.8372 19.4562 15.9604 19.3839 16.0841 19.3121C15.9178 19.2468 15.7491 19.1582 15.6168 19.3706C15.6398 19.3567 15.6634 19.3428 15.6392 19.3573C15.6668 19.3654 15.6415 19.3579 15.6162 19.3503C15.6133 19.4082 15.6099 19.4661 15.607 19.5239L15.5989 19.5204ZM80.0979 14.0297C80.099 14.0228 80.1008 14.0164 80.1019 14.0095C80.0208 13.9898 79.9396 13.9701 79.8579 13.951L79.8631 13.9458C79.9005 14.1437 80.0248 14.1374 80.1785 14.0697C80.1497 14.0494 80.1215 14.0291 80.0927 14.0095C80.0944 14.0164 80.0962 14.0228 80.0979 14.0297ZM77.8755 12.5814L77.8842 12.575C77.8842 12.6167 77.8848 12.6589 77.8853 12.7006L77.883 12.6931C77.9412 12.7347 77.9987 12.7764 78.0568 12.8181C78.0862 12.7573 78.1156 12.6971 78.1449 12.6364C78.0551 12.6178 77.9648 12.5993 77.8755 12.5814ZM79.3744 13.6762L79.3721 13.6837C79.3945 13.6611 79.417 13.6391 79.4394 13.6166L79.4314 13.62C79.345 13.583 79.2581 13.546 79.1718 13.5089C79.1723 13.5089 79.1902 13.4956 79.1902 13.4956C79.2518 13.5558 79.3128 13.6154 79.3744 13.6762ZM15.7215 19.5204C15.7215 19.5615 15.7221 19.6032 15.7221 19.6443L15.7135 19.6385C15.7998 19.5766 15.8861 19.5152 15.9725 19.4533C15.9437 19.4568 15.9143 19.4603 15.8856 19.4637C15.8286 19.4857 15.7716 19.5077 15.7146 19.5297L15.7227 19.521L15.7215 19.5204ZM52.7113 5.83212C52.7228 5.83733 52.7412 5.85064 52.7452 5.84717C52.7573 5.83617 52.7642 5.81939 52.7729 5.80435C52.7654 5.80145 52.7573 5.79856 52.7441 5.79335C52.7343 5.80492 52.7228 5.81881 52.7113 5.83212ZM15.6001 19.521L15.6087 19.5251C15.588 19.5621 15.5667 19.5991 15.546 19.6362C15.5483 19.6362 15.5563 19.6385 15.5701 19.6437C15.5799 19.6026 15.5903 19.5621 15.6001 19.521ZM81.062 14.9017C81.0747 14.9341 81.0868 14.9665 81.0988 14.9989C81.1132 14.9833 81.1276 14.9683 81.142 14.9527C81.1132 14.937 81.0845 14.922 81.0563 14.9064C81.0563 14.9064 81.0614 14.9017 81.062 14.9017ZM78.6595 13.1693C78.6704 13.1161 78.6814 13.0628 78.6923 13.0102C78.675 13.0651 78.6578 13.1207 78.6405 13.1757L78.6595 13.1693ZM12.8182 21.493C12.8159 21.5 12.8102 21.5087 12.8125 21.5127C12.8154 21.5179 12.8251 21.5197 12.8355 21.5243C12.8286 21.5116 12.8234 21.5023 12.8182 21.493ZM17.2117 18.5356C17.2336 18.5576 17.2555 18.5796 17.2779 18.6021L17.2745 18.594C17.2935 18.5657 17.313 18.5368 17.332 18.5084L17.336 18.5182C17.2975 18.5263 17.2589 18.5344 17.2204 18.5425L17.2117 18.5356ZM80.9809 14.8294C80.959 14.8201 80.9371 14.8109 80.9596 14.8207C80.9406 14.8039 80.9578 14.819 80.9745 14.834L80.9809 14.8294ZM77.883 12.6931C77.8433 12.6931 77.8036 12.6925 77.7639 12.6925L77.761 12.7006C77.8024 12.7006 77.8439 12.7 77.8853 12.7006L77.883 12.6931ZM79.8642 13.9464C79.8429 13.951 79.8216 13.9562 79.8446 13.951C79.8193 13.9458 79.8383 13.9499 79.8579 13.9528C79.859 13.9516 79.8642 13.9464 79.8642 13.9464ZM79.6225 13.7913C79.6305 13.7948 79.6386 13.7983 79.6472 13.8017C79.642 13.7988 79.6363 13.7965 79.6311 13.7936L79.6225 13.7913ZM79.6311 13.7936C79.6161 13.7925 79.6006 13.7907 79.585 13.7896C79.5902 13.7948 79.5954 13.8041 79.6006 13.8041C79.6075 13.8041 79.6144 13.7965 79.6213 13.7919L79.6299 13.7936H79.6311ZM17.2745 18.594L17.2779 18.6021C17.2555 18.6021 17.2336 18.6027 17.2111 18.6033L17.2198 18.5964C17.2071 18.6183 17.1945 18.6398 17.1818 18.6617C17.2129 18.6392 17.2434 18.6166 17.2745 18.594ZM80.9745 14.834C81.001 14.8578 81.0292 14.8826 81.0563 14.9064C81.0563 14.9064 81.0614 14.9017 81.062 14.9017C81.0355 14.878 81.0079 14.8531 80.9809 14.8294L80.9745 14.834ZM79.4325 13.682C79.4129 13.6802 79.3939 13.6779 79.3744 13.6762L79.3721 13.6837C79.3945 13.6837 79.4175 13.6849 79.44 13.6854L79.4325 13.682ZM79.4314 13.62C79.4365 13.6339 79.4423 13.6478 79.4446 13.6617C79.4457 13.6675 79.4371 13.6756 79.4325 13.682L79.4394 13.6843C79.4394 13.6617 79.4388 13.6391 79.4383 13.616L79.4302 13.6195L79.4314 13.62ZM17.2111 18.6033C17.2111 18.5807 17.2111 18.5576 17.2117 18.5356L17.2204 18.5425C17.1732 18.5512 17.1271 18.5599 17.0805 18.5686V18.5593C17.1271 18.5715 17.1737 18.5836 17.2198 18.5964L17.2111 18.6033Z"></path>
</svg>
